solid OpenSCAD_Model
  facet normal 0.92388 0.382683 0
    outer loop
      vertex 23.215 18.815 0.4
      vertex 22.9807 19.3807 0
      vertex 22.9807 19.3807 0.4
    endloop
  endfacet
  facet normal 0.92388 0.382683 0
    outer loop
      vertex 22.9807 19.3807 0
      vertex 23.215 18.815 0.4
      vertex 23.215 18.815 0
    endloop
  endfacet
  facet normal -0.92388 -0.382683 0
    outer loop
      vertex 1.39931 10.4993 0
      vertex 1.165 11.065 0.4
      vertex 1.165 11.065 0
    endloop
  endfacet
  facet normal -0.92388 -0.382683 0
    outer loop
      vertex 1.165 11.065 0.4
      vertex 1.39931 10.4993 0
      vertex 1.39931 10.4993 0.4
    endloop
  endfacet
  facet normal 0 1 -0
    outer loop
      vertex 7.515 19.615 0
      vertex 1.965 19.615 0.4
      vertex 7.515 19.615 0.4
    endloop
  endfacet
  facet normal 0 1 0
    outer loop
      vertex 1.965 19.615 0.4
      vertex 7.515 19.615 0
      vertex 1.965 19.615 0
    endloop
  endfacet
  facet normal 0 1 -0
    outer loop
      vertex 22.415 19.615 0
      vertex 16.865 19.615 0.4
      vertex 22.415 19.615 0.4
    endloop
  endfacet
  facet normal 0 1 0
    outer loop
      vertex 16.865 19.615 0.4
      vertex 22.415 19.615 0
      vertex 16.865 19.615 0
    endloop
  endfacet
  facet normal 0.382685 0.923879 -0
    outer loop
      vertex 22.9807 19.3807 0
      vertex 22.415 19.615 0.4
      vertex 22.9807 19.3807 0.4
    endloop
  endfacet
  facet normal 0.382685 0.923879 0
    outer loop
      vertex 22.415 19.615 0.4
      vertex 22.9807 19.3807 0
      vertex 22.415 19.615 0
    endloop
  endfacet
  facet normal -0.382683 -0.92388 0
    outer loop
      vertex 1.39931 10.4993 0
      vertex 1.965 10.265 0.4
      vertex 1.39931 10.4993 0.4
    endloop
  endfacet
  facet normal -0.382683 -0.92388 -0
    outer loop
      vertex 1.965 10.265 0.4
      vertex 1.39931 10.4993 0
      vertex 1.965 10.265 0
    endloop
  endfacet
  facet normal -0.92388 0.382683 0
    outer loop
      vertex 1.165 18.815 0
      vertex 1.39931 19.3807 0.4
      vertex 1.39931 19.3807 0
    endloop
  endfacet
  facet normal -0.92388 0.382683 0
    outer loop
      vertex 1.39931 19.3807 0.4
      vertex 1.165 18.815 0
      vertex 1.165 18.815 0.4
    endloop
  endfacet
  facet normal 0 0 -1
    outer loop
      vertex 1.165 11.065 0
      vertex 7.515 10.265 0
      vertex 1.965 10.265 0
    endloop
  endfacet
  facet normal 0 0 -1
    outer loop
      vertex 7.515 10.265 0
      vertex 1.165 11.065 0
      vertex 7.515 19.615 0
    endloop
  endfacet
  facet normal 0 0 -1
    outer loop
      vertex 1.165 11.065 0
      vertex 1.965 10.265 0
      vertex 1.39931 10.4993 0
    endloop
  endfacet
  facet normal 0 0 -1
    outer loop
      vertex 1.165 18.815 0
      vertex 7.515 19.615 0
      vertex 1.165 11.065 0
    endloop
  endfacet
  facet normal -0 0 -1
    outer loop
      vertex 7.515 19.615 0
      vertex 1.165 18.815 0
      vertex 1.965 19.615 0
    endloop
  endfacet
  facet normal 0 0 -1
    outer loop
      vertex 1.965 19.615 0
      vertex 1.165 18.815 0
      vertex 1.39931 19.3807 0
    endloop
  endfacet
  facet normal 0 0 -1
    outer loop
      vertex 16.065 3.915 0
      vertex 16.865 10.265 0
      vertex 16.865 4.715 0
    endloop
  endfacet
  facet normal 0 0 -1
    outer loop
      vertex 16.865 10.265 0
      vertex 7.515 10.265 0
      vertex 16.865 19.615 0
    endloop
  endfacet
  facet normal 0 0 -1
    outer loop
      vertex 16.065 3.915 0
      vertex 16.865 4.715 0
      vertex 16.6307 4.14931 0
    endloop
  endfacet
  facet normal 0 0 -1
    outer loop
      vertex 7.515 19.615 0
      vertex 16.865 19.615 0
      vertex 7.515 10.265 0
    endloop
  endfacet
  facet normal -0 0 -1
    outer loop
      vertex 16.865 10.265 0
      vertex 16.065 3.915 0
      vertex 7.515 10.265 0
    endloop
  endfacet
  facet normal 0 -0 -1
    outer loop
      vertex 16.065 25.965 0
      vertex 16.865 19.615 0
      vertex 7.515 19.615 0
    endloop
  endfacet
  facet normal 0 0 -1
    outer loop
      vertex 7.515 10.265 0
      vertex 16.065 3.915 0
      vertex 8.315 3.915 0
    endloop
  endfacet
  facet normal 0 0 -1
    outer loop
      vertex 16.865 19.615 0
      vertex 16.065 25.965 0
      vertex 16.865 25.165 0
    endloop
  endfacet
  facet normal 0 0 -1
    outer loop
      vertex 7.515 4.715 0
      vertex 8.315 3.915 0
      vertex 7.74931 4.14931 0
    endloop
  endfacet
  facet normal 0 0 -1
    outer loop
      vertex 16.865 25.165 0
      vertex 16.065 25.965 0
      vertex 16.6307 25.7307 0
    endloop
  endfacet
  facet normal 0 0 -1
    outer loop
      vertex 8.315 3.915 0
      vertex 7.515 4.715 0
      vertex 7.515 10.265 0
    endloop
  endfacet
  facet normal -0 0 -1
    outer loop
      vertex 16.065 25.965 0
      vertex 7.515 19.615 0
      vertex 8.315 25.965 0
    endloop
  endfacet
  facet normal 0 0 -1
    outer loop
      vertex 7.515 25.165 0
      vertex 8.315 25.965 0
      vertex 7.515 19.615 0
    endloop
  endfacet
  facet normal 0 0 -1
    outer loop
      vertex 8.315 25.965 0
      vertex 7.515 25.165 0
      vertex 7.74931 25.7307 0
    endloop
  endfacet
  facet normal 0 0 -1
    outer loop
      vertex 22.415 10.265 0
      vertex 23.215 11.065 0
      vertex 22.9807 10.4993 0
    endloop
  endfacet
  facet normal 0 0 -1
    outer loop
      vertex 16.865 10.265 0
      vertex 23.215 11.065 0
      vertex 22.415 10.265 0
    endloop
  endfacet
  facet normal -0 0 -1
    outer loop
      vertex 23.215 11.065 0
      vertex 16.865 10.265 0
      vertex 23.215 18.815 0
    endloop
  endfacet
  facet normal 0 0 -1
    outer loop
      vertex 23.215 18.815 0
      vertex 22.415 19.615 0
      vertex 22.9807 19.3807 0
    endloop
  endfacet
  facet normal 0 0 -1
    outer loop
      vertex 16.865 19.615 0
      vertex 23.215 18.815 0
      vertex 16.865 10.265 0
    endloop
  endfacet
  facet normal 0 0 -1
    outer loop
      vertex 23.215 18.815 0
      vertex 16.865 19.615 0
      vertex 22.415 19.615 0
    endloop
  endfacet
  facet normal -1 0 0
    outer loop
      vertex 1.165 11.065 0
      vertex 1.165 18.815 0.4
      vertex 1.165 18.815 0
    endloop
  endfacet
  facet normal -1 -0 0
    outer loop
      vertex 1.165 18.815 0.4
      vertex 1.165 11.065 0
      vertex 1.165 11.065 0.4
    endloop
  endfacet
  facet normal 0 0 1
    outer loop
      vertex 16.065 25.965 0.4
      vertex 16.865 25.165 0.4
      vertex 16.6307 25.7307 0.4
    endloop
  endfacet
  facet normal 0 0 1
    outer loop
      vertex 22.415 19.615 0.4
      vertex 23.215 18.815 0.4
      vertex 22.9807 19.3807 0.4
    endloop
  endfacet
  facet normal 0 0 1
    outer loop
      vertex 23.215 18.815 0.4
      vertex 21.715 17.315 0.4
      vertex 23.215 11.065 0.4
    endloop
  endfacet
  facet normal 0 0 1
    outer loop
      vertex 23.215 18.815 0.4
      vertex 22.415 19.615 0.4
      vertex 21.4807 17.8807 0.4
    endloop
  endfacet
  facet normal -0 0 1
    outer loop
      vertex 21.715 12.565 0.4
      vertex 23.215 11.065 0.4
      vertex 21.715 17.315 0.4
    endloop
  endfacet
  facet normal -0 0 1
    outer loop
      vertex 21.4807 11.9993 0.4
      vertex 23.215 11.065 0.4
      vertex 21.715 12.565 0.4
    endloop
  endfacet
  facet normal 0 0 1
    outer loop
      vertex 23.215 18.815 0.4
      vertex 21.4807 17.8807 0.4
      vertex 21.715 17.315 0.4
    endloop
  endfacet
  facet normal 0 0 1
    outer loop
      vertex 22.415 19.615 0.4
      vertex 20.915 18.115 0.4
      vertex 21.4807 17.8807 0.4
    endloop
  endfacet
  facet normal -0 0 1
    outer loop
      vertex 16.865 19.615 0.4
      vertex 20.915 18.115 0.4
      vertex 22.415 19.615 0.4
    endloop
  endfacet
  facet normal 0 0 1
    outer loop
      vertex 16.865 25.165 0.4
      vertex 16.065 25.965 0.4
      vertex 15.1307 24.2307 0.4
    endloop
  endfacet
  facet normal 0 0 1
    outer loop
      vertex 16.865 25.165 0.4
      vertex 15.365 23.665 0.4
      vertex 16.865 19.615 0.4
    endloop
  endfacet
  facet normal 0 0 1
    outer loop
      vertex 16.865 19.615 0.4
      vertex 15.365 18.115 0.4
      vertex 20.915 18.115 0.4
    endloop
  endfacet
  facet normal 0 0 1
    outer loop
      vertex 15.365 18.115 0.4
      vertex 16.865 19.615 0.4
      vertex 15.365 23.665 0.4
    endloop
  endfacet
  facet normal 0 -0 1
    outer loop
      vertex 22.415 10.265 0.4
      vertex 23.215 11.065 0.4
      vertex 21.4807 11.9993 0.4
    endloop
  endfacet
  facet normal 0 0 1
    outer loop
      vertex 23.215 11.065 0.4
      vertex 22.415 10.265 0.4
      vertex 22.9807 10.4993 0.4
    endloop
  endfacet
  facet normal -0 0 1
    outer loop
      vertex 20.915 11.765 0.4
      vertex 22.415 10.265 0.4
      vertex 21.4807 11.9993 0.4
    endloop
  endfacet
  facet normal 0 0 1
    outer loop
      vertex 20.915 11.765 0.4
      vertex 16.865 10.265 0.4
      vertex 22.415 10.265 0.4
    endloop
  endfacet
  facet normal -0 0 1
    outer loop
      vertex 15.365 6.215 0.4
      vertex 16.865 4.715 0.4
      vertex 16.865 10.265 0.4
    endloop
  endfacet
  facet normal -0 0 1
    outer loop
      vertex 15.1307 5.64932 0.4
      vertex 16.865 4.715 0.4
      vertex 15.365 6.215 0.4
    endloop
  endfacet
  facet normal -0 0 1
    outer loop
      vertex 15.365 11.765 0.4
      vertex 16.865 10.265 0.4
      vertex 20.915 11.765 0.4
    endloop
  endfacet
  facet normal 0 0 1
    outer loop
      vertex 15.365 6.215 0.4
      vertex 16.865 10.265 0.4
      vertex 15.365 11.765 0.4
    endloop
  endfacet
  facet normal 0 -0 1
    outer loop
      vertex 16.065 3.915 0.4
      vertex 16.865 4.715 0.4
      vertex 15.1307 5.64932 0.4
    endloop
  endfacet
  facet normal 0 0 1
    outer loop
      vertex 16.865 4.715 0.4
      vertex 16.065 3.915 0.4
      vertex 16.6307 4.14931 0.4
    endloop
  endfacet
  facet normal -0 0 1
    outer loop
      vertex 14.565 5.415 0.4
      vertex 16.065 3.915 0.4
      vertex 15.1307 5.64932 0.4
    endloop
  endfacet
  facet normal -0 0 1
    outer loop
      vertex 9.815 5.415 0.4
      vertex 16.065 3.915 0.4
      vertex 14.565 5.415 0.4
    endloop
  endfacet
  facet normal 0 0 1
    outer loop
      vertex 9.815 5.415 0.4
      vertex 8.315 3.915 0.4
      vertex 16.065 3.915 0.4
    endloop
  endfacet
  facet normal 0 0 1
    outer loop
      vertex 9.24931 5.64932 0.4
      vertex 8.315 3.915 0.4
      vertex 9.815 5.415 0.4
    endloop
  endfacet
  facet normal 0 0 1
    outer loop
      vertex 7.515 4.715 0.4
      vertex 9.24931 5.64932 0.4
      vertex 9.015 6.215 0.4
    endloop
  endfacet
  facet normal -0 0 1
    outer loop
      vertex 7.515 10.265 0.4
      vertex 9.015 6.215 0.4
      vertex 9.015 11.765 0.4
    endloop
  endfacet
  facet normal 0 0 1
    outer loop
      vertex 7.515 4.715 0.4
      vertex 9.015 6.215 0.4
      vertex 7.515 10.265 0.4
    endloop
  endfacet
  facet normal 0 0 1
    outer loop
      vertex 9.24931 5.64932 0.4
      vertex 7.515 4.715 0.4
      vertex 8.315 3.915 0.4
    endloop
  endfacet
  facet normal -0 0 1
    outer loop
      vertex 3.465 11.765 0.4
      vertex 7.515 10.265 0.4
      vertex 9.015 11.765 0.4
    endloop
  endfacet
  facet normal 0 0 1
    outer loop
      vertex 3.465 11.765 0.4
      vertex 1.965 10.265 0.4
      vertex 7.515 10.265 0.4
    endloop
  endfacet
  facet normal 0 0 1
    outer loop
      vertex 2.89932 11.9993 0.4
      vertex 1.965 10.265 0.4
      vertex 3.465 11.765 0.4
    endloop
  endfacet
  facet normal 0 0 1
    outer loop
      vertex 1.165 11.065 0.4
      vertex 2.89932 11.9993 0.4
      vertex 2.665 12.565 0.4
    endloop
  endfacet
  facet normal 0 0 1
    outer loop
      vertex 2.665 17.315 0.4
      vertex 1.165 18.815 0.4
      vertex 2.665 12.565 0.4
    endloop
  endfacet
  facet normal 0 0 1
    outer loop
      vertex 1.165 18.815 0.4
      vertex 1.965 19.615 0.4
      vertex 1.39931 19.3807 0.4
    endloop
  endfacet
  facet normal 0 0 1
    outer loop
      vertex 1.165 11.065 0.4
      vertex 2.665 12.565 0.4
      vertex 1.165 18.815 0.4
    endloop
  endfacet
  facet normal 0 0 1
    outer loop
      vertex 2.89932 11.9993 0.4
      vertex 1.165 11.065 0.4
      vertex 1.965 10.265 0.4
    endloop
  endfacet
  facet normal 0 0 1
    outer loop
      vertex 1.965 10.265 0.4
      vertex 1.165 11.065 0.4
      vertex 1.39931 10.4993 0.4
    endloop
  endfacet
  facet normal 0 0 1
    outer loop
      vertex 16.865 25.165 0.4
      vertex 15.1307 24.2307 0.4
      vertex 15.365 23.665 0.4
    endloop
  endfacet
  facet normal 0 0 1
    outer loop
      vertex 16.065 25.965 0.4
      vertex 14.565 24.465 0.4
      vertex 15.1307 24.2307 0.4
    endloop
  endfacet
  facet normal 0 0 1
    outer loop
      vertex 16.065 25.965 0.4
      vertex 9.815 24.465 0.4
      vertex 14.565 24.465 0.4
    endloop
  endfacet
  facet normal -0 0 1
    outer loop
      vertex 8.315 25.965 0.4
      vertex 9.815 24.465 0.4
      vertex 16.065 25.965 0.4
    endloop
  endfacet
  facet normal 0 0 1
    outer loop
      vertex 8.315 25.965 0.4
      vertex 9.24931 24.2307 0.4
      vertex 9.815 24.465 0.4
    endloop
  endfacet
  facet normal -0 0 1
    outer loop
      vertex 7.515 25.165 0.4
      vertex 9.24931 24.2307 0.4
      vertex 8.315 25.965 0.4
    endloop
  endfacet
  facet normal 0 0 1
    outer loop
      vertex 9.24931 24.2307 0.4
      vertex 7.515 25.165 0.4
      vertex 9.015 23.665 0.4
    endloop
  endfacet
  facet normal 0 0 1
    outer loop
      vertex 7.515 25.165 0.4
      vertex 8.315 25.965 0.4
      vertex 7.74931 25.7307 0.4
    endloop
  endfacet
  facet normal 0 0 1
    outer loop
      vertex 9.015 23.665 0.4
      vertex 7.515 25.165 0.4
      vertex 7.515 19.615 0.4
    endloop
  endfacet
  facet normal 0 0 1
    outer loop
      vertex 9.015 23.665 0.4
      vertex 7.515 19.615 0.4
      vertex 9.015 18.115 0.4
    endloop
  endfacet
  facet normal 0 0 1
    outer loop
      vertex 7.515 19.615 0.4
      vertex 3.465 18.115 0.4
      vertex 9.015 18.115 0.4
    endloop
  endfacet
  facet normal 0 0 1
    outer loop
      vertex 2.89932 17.8807 0.4
      vertex 1.165 18.815 0.4
      vertex 2.665 17.315 0.4
    endloop
  endfacet
  facet normal -0 0 1
    outer loop
      vertex 1.165 18.815 0.4
      vertex 2.89932 17.8807 0.4
      vertex 1.965 19.615 0.4
    endloop
  endfacet
  facet normal 0 0 1
    outer loop
      vertex 3.465 18.115 0.4
      vertex 1.965 19.615 0.4
      vertex 2.89932 17.8807 0.4
    endloop
  endfacet
  facet normal -0 0 1
    outer loop
      vertex 1.965 19.615 0.4
      vertex 3.465 18.115 0.4
      vertex 7.515 19.615 0.4
    endloop
  endfacet
  facet normal 0 0 1
    outer loop
      vertex 8.315 3.915 0.4
      vertex 7.515 4.715 0.4
      vertex 7.74931 4.14931 0.4
    endloop
  endfacet
  facet normal -0.382685 0.923879 0
    outer loop
      vertex 1.965 19.615 0
      vertex 1.39931 19.3807 0.4
      vertex 1.965 19.615 0.4
    endloop
  endfacet
  facet normal -0.382685 0.923879 0
    outer loop
      vertex 1.39931 19.3807 0.4
      vertex 1.965 19.615 0
      vertex 1.39931 19.3807 0
    endloop
  endfacet
  facet normal 1 -0 0
    outer loop
      vertex 23.215 11.065 0.4
      vertex 23.215 18.815 0
      vertex 23.215 18.815 0.4
    endloop
  endfacet
  facet normal 1 0 0
    outer loop
      vertex 23.215 18.815 0
      vertex 23.215 11.065 0.4
      vertex 23.215 11.065 0
    endloop
  endfacet
  facet normal 0.382683 -0.92388 0
    outer loop
      vertex 22.415 10.265 0
      vertex 22.9807 10.4993 0.4
      vertex 22.415 10.265 0.4
    endloop
  endfacet
  facet normal 0.382683 -0.92388 0
    outer loop
      vertex 22.9807 10.4993 0.4
      vertex 22.415 10.265 0
      vertex 22.9807 10.4993 0
    endloop
  endfacet
  facet normal 0 -1 0
    outer loop
      vertex 16.865 10.265 0
      vertex 22.415 10.265 0.4
      vertex 16.865 10.265 0.4
    endloop
  endfacet
  facet normal 0 -1 -0
    outer loop
      vertex 22.415 10.265 0.4
      vertex 16.865 10.265 0
      vertex 22.415 10.265 0
    endloop
  endfacet
  facet normal 0 -1 0
    outer loop
      vertex 1.965 10.265 0
      vertex 7.515 10.265 0.4
      vertex 1.965 10.265 0.4
    endloop
  endfacet
  facet normal 0 -1 -0
    outer loop
      vertex 7.515 10.265 0.4
      vertex 1.965 10.265 0
      vertex 7.515 10.265 0
    endloop
  endfacet
  facet normal 0.92388 -0.382683 0
    outer loop
      vertex 22.9807 10.4993 0.4
      vertex 23.215 11.065 0
      vertex 23.215 11.065 0.4
    endloop
  endfacet
  facet normal 0.92388 -0.382683 0
    outer loop
      vertex 23.215 11.065 0
      vertex 22.9807 10.4993 0.4
      vertex 22.9807 10.4993 0
    endloop
  endfacet
  facet normal 0.376381 0.908663 0.180745
    outer loop
      vertex 21.4807 17.8807 2.2
      vertex 20.915 18.0541 2.50615
      vertex 21.4376 17.8376 2.50615
    endloop
  endfacet
  facet normal 0.382683 0.92388 -0
    outer loop
      vertex 21.4807 17.8807 0.4
      vertex 20.915 18.115 2.2
      vertex 21.4807 17.8807 2.2
    endloop
  endfacet
  facet normal 0.382683 0.92388 0
    outer loop
      vertex 20.915 18.115 2.2
      vertex 21.4807 17.8807 0.4
      vertex 20.915 18.115 0.4
    endloop
  endfacet
  facet normal 0.908664 0.37638 0.180743
    outer loop
      vertex 21.715 17.315 2.2
      vertex 21.4807 17.8807 2.2
      vertex 21.6541 17.315 2.50615
    endloop
  endfacet
  facet normal 0.908663 0.376381 0.180745
    outer loop
      vertex 21.4807 17.8807 2.2
      vertex 21.4376 17.8376 2.50615
      vertex 21.6541 17.315 2.50615
    endloop
  endfacet
  facet normal 0.281085 0.678598 0.678598
    outer loop
      vertex 20.915 18.0541 2.50615
      vertex 20.915 17.6211 2.9391
      vertex 21.4376 17.8376 2.50615
    endloop
  endfacet
  facet normal 0.281085 0.678598 0.678598
    outer loop
      vertex 21.4376 17.8376 2.50615
      vertex 20.915 17.6211 2.9391
      vertex 21.1315 17.5315 2.9391
    endloop
  endfacet
  facet normal 0.678598 0.281085 0.678598
    outer loop
      vertex 21.4376 17.8376 2.50615
      vertex 21.1315 17.5315 2.9391
      vertex 21.2211 17.315 2.9391
    endloop
  endfacet
  facet normal -0.92388 0.382683 0
    outer loop
      vertex 2.665 17.315 0.4
      vertex 2.89932 17.8807 2.2
      vertex 2.89932 17.8807 0.4
    endloop
  endfacet
  facet normal -0.92388 0.382683 0
    outer loop
      vertex 2.89932 17.8807 2.2
      vertex 2.665 17.315 0.4
      vertex 2.665 17.315 2.2
    endloop
  endfacet
  facet normal -0.980786 0 0.195089
    outer loop
      vertex 2.665 12.565 2.2
      vertex 2.7259 17.315 2.50615
      vertex 2.665 17.315 2.2
    endloop
  endfacet
  facet normal -0.980786 0 0.195089
    outer loop
      vertex 2.7259 17.315 2.50615
      vertex 2.665 12.565 2.2
      vertex 2.7259 12.565 2.50615
    endloop
  endfacet
  facet normal 0.92388 0.382683 0
    outer loop
      vertex 21.715 17.315 2.2
      vertex 21.4807 17.8807 0.4
      vertex 21.4807 17.8807 2.2
    endloop
  endfacet
  facet normal 0.92388 0.382683 0
    outer loop
      vertex 21.4807 17.8807 0.4
      vertex 21.715 17.315 2.2
      vertex 21.715 17.315 0.4
    endloop
  endfacet
  facet normal 0 0 1
    outer loop
      vertex 3.465 12.2589 2.9391
      vertex 9.85973 14.94 2.9391
      vertex 3.465 17.6211 2.9391
    endloop
  endfacet
  facet normal 0 0 1
    outer loop
      vertex 9.85973 14.94 2.9391
      vertex 3.465 12.2589 2.9391
      vertex 9.50885 12.2589 2.9391
    endloop
  endfacet
  facet normal 0 0 1
    outer loop
      vertex 3.15885 17.315 2.9391
      vertex 3.465 17.6211 2.9391
      vertex 3.24852 17.5315 2.9391
    endloop
  endfacet
  facet normal 0 0 1
    outer loop
      vertex 3.465 17.6211 2.9391
      vertex 3.15885 17.315 2.9391
      vertex 3.465 12.2589 2.9391
    endloop
  endfacet
  facet normal -0 0 1
    outer loop
      vertex 3.15885 12.565 2.9391
      vertex 3.465 12.2589 2.9391
      vertex 3.15885 17.315 2.9391
    endloop
  endfacet
  facet normal 0 0 1
    outer loop
      vertex 3.465 12.2589 2.9391
      vertex 3.15885 12.565 2.9391
      vertex 3.24852 12.3485 2.9391
    endloop
  endfacet
  facet normal 0 0 1
    outer loop
      vertex 12.438 17.2209 2.9391
      vertex 14.8711 17.6211 2.9391
      vertex 14.8711 23.665 2.9391
    endloop
  endfacet
  facet normal 0 0 1
    outer loop
      vertex 14.8711 17.6211 2.9391
      vertex 14.5203 14.94 2.9391
      vertex 14.8711 12.2589 2.9391
    endloop
  endfacet
  facet normal 0 0 1
    outer loop
      vertex 14.565 23.9711 2.9391
      vertex 14.8711 23.665 2.9391
      vertex 14.7815 23.8815 2.9391
    endloop
  endfacet
  facet normal -0 0 1
    outer loop
      vertex 14.4709 14.692 2.9391
      vertex 14.8711 12.2589 2.9391
      vertex 14.5203 14.94 2.9391
    endloop
  endfacet
  facet normal 0 0 1
    outer loop
      vertex 9.50885 23.665 2.9391
      vertex 14.8711 23.665 2.9391
      vertex 14.565 23.9711 2.9391
    endloop
  endfacet
  facet normal -0 0 1
    outer loop
      vertex 14.3429 14.0482 2.9391
      vertex 14.8711 12.2589 2.9391
      vertex 14.4709 14.692 2.9391
    endloop
  endfacet
  facet normal -0 0 1
    outer loop
      vertex 13.9782 13.5025 2.9391
      vertex 14.8711 12.2589 2.9391
      vertex 14.3429 14.0482 2.9391
    endloop
  endfacet
  facet normal 0 0 1
    outer loop
      vertex 14.8711 17.6211 2.9391
      vertex 14.4709 15.188 2.9391
      vertex 14.5203 14.94 2.9391
    endloop
  endfacet
  facet normal 0 0 1
    outer loop
      vertex 14.8711 17.6211 2.9391
      vertex 14.3429 15.8318 2.9391
      vertex 14.4709 15.188 2.9391
    endloop
  endfacet
  facet normal 0 0 1
    outer loop
      vertex 14.8711 17.6211 2.9391
      vertex 13.9782 16.3775 2.9391
      vertex 14.3429 15.8318 2.9391
    endloop
  endfacet
  facet normal 0 0 1
    outer loop
      vertex 14.8711 17.6211 2.9391
      vertex 13.8377 16.5877 2.9391
      vertex 13.9782 16.3775 2.9391
    endloop
  endfacet
  facet normal 0 0 1
    outer loop
      vertex 14.8711 17.6211 2.9391
      vertex 13.6275 16.7282 2.9391
      vertex 13.8377 16.5877 2.9391
    endloop
  endfacet
  facet normal 0 0 1
    outer loop
      vertex 14.8711 17.6211 2.9391
      vertex 13.0818 17.0929 2.9391
      vertex 13.6275 16.7282 2.9391
    endloop
  endfacet
  facet normal 0 0 1
    outer loop
      vertex 14.8711 17.6211 2.9391
      vertex 12.438 17.2209 2.9391
      vertex 13.0818 17.0929 2.9391
    endloop
  endfacet
  facet normal 0 0 1
    outer loop
      vertex 14.8711 23.665 2.9391
      vertex 12.19 17.2703 2.9391
      vertex 12.438 17.2209 2.9391
    endloop
  endfacet
  facet normal 0 0 1
    outer loop
      vertex 14.8711 23.665 2.9391
      vertex 9.50885 23.665 2.9391
      vertex 12.19 17.2703 2.9391
    endloop
  endfacet
  facet normal 0 0 1
    outer loop
      vertex 12.19 17.2703 2.9391
      vertex 9.50885 23.665 2.9391
      vertex 11.942 17.2209 2.9391
    endloop
  endfacet
  facet normal 0 0 1
    outer loop
      vertex 9.50885 23.665 2.9391
      vertex 14.565 23.9711 2.9391
      vertex 9.815 23.9711 2.9391
    endloop
  endfacet
  facet normal 0 0 1
    outer loop
      vertex 11.2982 17.0929 2.9391
      vertex 9.50885 17.6211 2.9391
      vertex 10.7525 16.7282 2.9391
    endloop
  endfacet
  facet normal 0 0 1
    outer loop
      vertex 10.7525 16.7282 2.9391
      vertex 9.50885 17.6211 2.9391
      vertex 10.5423 16.5877 2.9391
    endloop
  endfacet
  facet normal 0 0 1
    outer loop
      vertex 10.5423 16.5877 2.9391
      vertex 9.50885 17.6211 2.9391
      vertex 10.4018 16.3775 2.9391
    endloop
  endfacet
  facet normal 0 0 1
    outer loop
      vertex 10.0371 15.8318 2.9391
      vertex 9.50885 17.6211 2.9391
      vertex 9.90907 15.188 2.9391
    endloop
  endfacet
  facet normal 0 0 1
    outer loop
      vertex 10.4018 16.3775 2.9391
      vertex 9.50885 17.6211 2.9391
      vertex 10.0371 15.8318 2.9391
    endloop
  endfacet
  facet normal -0 0 1
    outer loop
      vertex 9.50885 17.6211 2.9391
      vertex 11.942 17.2209 2.9391
      vertex 9.50885 23.665 2.9391
    endloop
  endfacet
  facet normal 0 0 1
    outer loop
      vertex 20.915 17.6211 2.9391
      vertex 21.2211 17.315 2.9391
      vertex 21.1315 17.5315 2.9391
    endloop
  endfacet
  facet normal 0 0 1
    outer loop
      vertex 21.2211 17.315 2.9391
      vertex 20.915 17.6211 2.9391
      vertex 21.2211 12.565 2.9391
    endloop
  endfacet
  facet normal 0 0 1
    outer loop
      vertex 20.915 12.2589 2.9391
      vertex 21.2211 12.565 2.9391
      vertex 20.915 17.6211 2.9391
    endloop
  endfacet
  facet normal 0 0 1
    outer loop
      vertex 21.2211 12.565 2.9391
      vertex 20.915 12.2589 2.9391
      vertex 21.1315 12.3485 2.9391
    endloop
  endfacet
  facet normal -0 0 1
    outer loop
      vertex 14.8711 17.6211 2.9391
      vertex 20.915 12.2589 2.9391
      vertex 20.915 17.6211 2.9391
    endloop
  endfacet
  facet normal 0 0 1
    outer loop
      vertex 20.915 12.2589 2.9391
      vertex 14.8711 17.6211 2.9391
      vertex 14.8711 12.2589 2.9391
    endloop
  endfacet
  facet normal -0 0 1
    outer loop
      vertex 13.8377 13.2923 2.9391
      vertex 14.8711 12.2589 2.9391
      vertex 13.9782 13.5025 2.9391
    endloop
  endfacet
  facet normal -0 0 1
    outer loop
      vertex 13.6275 13.1518 2.9391
      vertex 14.8711 12.2589 2.9391
      vertex 13.8377 13.2923 2.9391
    endloop
  endfacet
  facet normal -0 0 1
    outer loop
      vertex 13.0818 12.7871 2.9391
      vertex 14.8711 12.2589 2.9391
      vertex 13.6275 13.1518 2.9391
    endloop
  endfacet
  facet normal -0 0 1
    outer loop
      vertex 12.438 12.6591 2.9391
      vertex 14.8711 12.2589 2.9391
      vertex 13.0818 12.7871 2.9391
    endloop
  endfacet
  facet normal 0 0 1
    outer loop
      vertex 14.8711 12.2589 2.9391
      vertex 12.438 12.6591 2.9391
      vertex 14.8711 6.215 2.9391
    endloop
  endfacet
  facet normal -0 0 1
    outer loop
      vertex 12.19 12.6097 2.9391
      vertex 14.8711 6.215 2.9391
      vertex 12.438 12.6591 2.9391
    endloop
  endfacet
  facet normal 0 0 1
    outer loop
      vertex 14.8711 6.215 2.9391
      vertex 14.565 5.90885 2.9391
      vertex 14.7815 5.99852 2.9391
    endloop
  endfacet
  facet normal 0 0 1
    outer loop
      vertex 9.50885 6.215 2.9391
      vertex 14.8711 6.215 2.9391
      vertex 12.19 12.6097 2.9391
    endloop
  endfacet
  facet normal 0 0 1
    outer loop
      vertex 9.50885 6.215 2.9391
      vertex 12.19 12.6097 2.9391
      vertex 11.942 12.6591 2.9391
    endloop
  endfacet
  facet normal 0 0 1
    outer loop
      vertex 9.50885 12.2589 2.9391
      vertex 11.942 12.6591 2.9391
      vertex 11.2982 12.7871 2.9391
    endloop
  endfacet
  facet normal 0 0 1
    outer loop
      vertex 9.50885 12.2589 2.9391
      vertex 11.2982 12.7871 2.9391
      vertex 10.7525 13.1518 2.9391
    endloop
  endfacet
  facet normal 0 0 1
    outer loop
      vertex 9.50885 12.2589 2.9391
      vertex 10.7525 13.1518 2.9391
      vertex 10.5423 13.2923 2.9391
    endloop
  endfacet
  facet normal 0 0 1
    outer loop
      vertex 9.50885 12.2589 2.9391
      vertex 10.5423 13.2923 2.9391
      vertex 10.4018 13.5025 2.9391
    endloop
  endfacet
  facet normal 0 0 1
    outer loop
      vertex 9.50885 12.2589 2.9391
      vertex 10.4018 13.5025 2.9391
      vertex 10.0371 14.0482 2.9391
    endloop
  endfacet
  facet normal 0 0 1
    outer loop
      vertex 11.942 12.6591 2.9391
      vertex 9.50885 12.2589 2.9391
      vertex 9.50885 6.215 2.9391
    endloop
  endfacet
  facet normal 0 0 1
    outer loop
      vertex 9.50885 12.2589 2.9391
      vertex 10.0371 14.0482 2.9391
      vertex 9.90907 14.692 2.9391
    endloop
  endfacet
  facet normal 0 0 1
    outer loop
      vertex 9.50885 12.2589 2.9391
      vertex 9.90907 14.692 2.9391
      vertex 9.85973 14.94 2.9391
    endloop
  endfacet
  facet normal -0 0 1
    outer loop
      vertex 3.465 17.6211 2.9391
      vertex 9.90907 15.188 2.9391
      vertex 9.50885 17.6211 2.9391
    endloop
  endfacet
  facet normal 0 0 1
    outer loop
      vertex 9.50885 23.665 2.9391
      vertex 9.815 23.9711 2.9391
      vertex 9.59852 23.8815 2.9391
    endloop
  endfacet
  facet normal 0 0 1
    outer loop
      vertex 9.90907 15.188 2.9391
      vertex 3.465 17.6211 2.9391
      vertex 9.85973 14.94 2.9391
    endloop
  endfacet
  facet normal 0 0 1
    outer loop
      vertex 11.942 17.2209 2.9391
      vertex 9.50885 17.6211 2.9391
      vertex 11.2982 17.0929 2.9391
    endloop
  endfacet
  facet normal 0 0 1
    outer loop
      vertex 14.8711 6.215 2.9391
      vertex 9.50885 6.215 2.9391
      vertex 14.565 5.90885 2.9391
    endloop
  endfacet
  facet normal 0 0 1
    outer loop
      vertex 14.565 5.90885 2.9391
      vertex 9.50885 6.215 2.9391
      vertex 9.815 5.90885 2.9391
    endloop
  endfacet
  facet normal 0 0 1
    outer loop
      vertex 9.815 5.90885 2.9391
      vertex 9.50885 6.215 2.9391
      vertex 9.59852 5.99852 2.9391
    endloop
  endfacet
  facet normal 0 1 -0
    outer loop
      vertex 20.915 18.115 0.4
      vertex 15.365 18.115 2.2
      vertex 20.915 18.115 2.2
    endloop
  endfacet
  facet normal 0 1 0
    outer loop
      vertex 15.365 18.115 2.2
      vertex 20.915 18.115 0.4
      vertex 15.365 18.115 0.4
    endloop
  endfacet
  facet normal 0 1 -0
    outer loop
      vertex 9.015 18.115 0.4
      vertex 3.465 18.115 2.2
      vertex 9.015 18.115 2.2
    endloop
  endfacet
  facet normal 0 1 0
    outer loop
      vertex 3.465 18.115 2.2
      vertex 9.015 18.115 0.4
      vertex 3.465 18.115 0.4
    endloop
  endfacet
  facet normal -0.37638 0.908664 0.180743
    outer loop
      vertex 3.465 18.115 2.2
      vertex 2.89932 17.8807 2.2
      vertex 3.465 18.0541 2.50615
    endloop
  endfacet
  facet normal -0.382683 0.92388 0
    outer loop
      vertex 3.465 18.115 0.4
      vertex 2.89932 17.8807 2.2
      vertex 3.465 18.115 2.2
    endloop
  endfacet
  facet normal -0.382683 0.92388 0
    outer loop
      vertex 2.89932 17.8807 2.2
      vertex 3.465 18.115 0.4
      vertex 2.89932 17.8807 0.4
    endloop
  endfacet
  facet normal -0.281085 -0.678598 0.678598
    outer loop
      vertex 3.465 12.2589 2.9391
      vertex 2.94238 12.0424 2.50615
      vertex 3.465 11.8259 2.50615
    endloop
  endfacet
  facet normal 0.382683 -0.92388 0
    outer loop
      vertex 20.915 11.765 0.4
      vertex 21.4807 11.9993 2.2
      vertex 20.915 11.765 2.2
    endloop
  endfacet
  facet normal 0.382683 -0.92388 0
    outer loop
      vertex 21.4807 11.9993 2.2
      vertex 20.915 11.765 0.4
      vertex 21.4807 11.9993 0.4
    endloop
  endfacet
  facet normal 0.37638 0.908664 0.180743
    outer loop
      vertex 20.915 18.115 2.2
      vertex 20.915 18.0541 2.50615
      vertex 21.4807 17.8807 2.2
    endloop
  endfacet
  facet normal -0.281085 -0.678598 0.678598
    outer loop
      vertex 3.24852 12.3485 2.9391
      vertex 2.94238 12.0424 2.50615
      vertex 3.465 12.2589 2.9391
    endloop
  endfacet
  facet normal -0 0.707107 0.707107
    outer loop
      vertex 15.3041 18.0541 2.50615
      vertex 20.915 17.6211 2.9391
      vertex 20.915 18.0541 2.50615
    endloop
  endfacet
  facet normal 0 0.707107 0.707107
    outer loop
      vertex 20.915 17.6211 2.9391
      vertex 15.3041 18.0541 2.50615
      vertex 14.8711 17.6211 2.9391
    endloop
  endfacet
  facet normal 0 0.707107 0.707107
    outer loop
      vertex 9.0759 18.0541 2.50615
      vertex 3.465 17.6211 2.9391
      vertex 9.50885 17.6211 2.9391
    endloop
  endfacet
  facet normal 0 0.707107 0.707107
    outer loop
      vertex 3.465 17.6211 2.9391
      vertex 9.0759 18.0541 2.50615
      vertex 3.465 18.0541 2.50615
    endloop
  endfacet
  facet normal -0 0.980786 0.195089
    outer loop
      vertex 15.365 18.115 2.2
      vertex 20.915 18.0541 2.50615
      vertex 20.915 18.115 2.2
    endloop
  endfacet
  facet normal 0 0.980786 0.195089
    outer loop
      vertex 20.915 18.0541 2.50615
      vertex 15.365 18.115 2.2
      vertex 15.3041 18.0541 2.50615
    endloop
  endfacet
  facet normal 0 0.980786 0.195089
    outer loop
      vertex 9.015 18.115 2.2
      vertex 3.465 18.0541 2.50615
      vertex 9.0759 18.0541 2.50615
    endloop
  endfacet
  facet normal 0 0.980786 0.195089
    outer loop
      vertex 3.465 18.0541 2.50615
      vertex 9.015 18.115 2.2
      vertex 3.465 18.115 2.2
    endloop
  endfacet
  facet normal -0.281085 0.678598 0.678598
    outer loop
      vertex 3.465 18.0541 2.50615
      vertex 2.94238 17.8376 2.50615
      vertex 3.465 17.6211 2.9391
    endloop
  endfacet
  facet normal 0.980786 -0 0.195089
    outer loop
      vertex 21.6541 12.565 2.50615
      vertex 21.715 17.315 2.2
      vertex 21.6541 17.315 2.50615
    endloop
  endfacet
  facet normal 0.980786 0 0.195089
    outer loop
      vertex 21.715 17.315 2.2
      vertex 21.6541 12.565 2.50615
      vertex 21.715 12.565 2.2
    endloop
  endfacet
  facet normal -0.92388 -0.382683 0
    outer loop
      vertex 2.89932 11.9993 0.4
      vertex 2.665 12.565 2.2
      vertex 2.665 12.565 0.4
    endloop
  endfacet
  facet normal -0.92388 -0.382683 0
    outer loop
      vertex 2.665 12.565 2.2
      vertex 2.89932 11.9993 0.4
      vertex 2.89932 11.9993 2.2
    endloop
  endfacet
  facet normal -0.908664 0.37638 0.180743
    outer loop
      vertex 2.89932 17.8807 2.2
      vertex 2.665 17.315 2.2
      vertex 2.7259 17.315 2.50615
    endloop
  endfacet
  facet normal -0.678598 0.281085 0.678598
    outer loop
      vertex 2.94238 17.8376 2.50615
      vertex 2.7259 17.315 2.50615
      vertex 3.15885 17.315 2.9391
    endloop
  endfacet
  facet normal -0.382683 -0.92388 0
    outer loop
      vertex 2.89932 11.9993 0.4
      vertex 3.465 11.765 2.2
      vertex 2.89932 11.9993 2.2
    endloop
  endfacet
  facet normal -0.382683 -0.92388 -0
    outer loop
      vertex 3.465 11.765 2.2
      vertex 2.89932 11.9993 0.4
      vertex 3.465 11.765 0.4
    endloop
  endfacet
  facet normal 0.707107 -0 0.707107
    outer loop
      vertex 21.2211 12.565 2.9391
      vertex 21.6541 17.315 2.50615
      vertex 21.2211 17.315 2.9391
    endloop
  endfacet
  facet normal 0.707107 0 0.707107
    outer loop
      vertex 21.6541 17.315 2.50615
      vertex 21.2211 12.565 2.9391
      vertex 21.6541 12.565 2.50615
    endloop
  endfacet
  facet normal 0.678598 -0.281085 0.678598
    outer loop
      vertex 21.6541 12.565 2.50615
      vertex 21.2211 12.565 2.9391
      vertex 21.4376 12.0424 2.50615
    endloop
  endfacet
  facet normal 0.678598 0.281085 0.678598
    outer loop
      vertex 21.4376 17.8376 2.50615
      vertex 21.2211 17.315 2.9391
      vertex 21.6541 17.315 2.50615
    endloop
  endfacet
  facet normal -1 0 0
    outer loop
      vertex 2.665 12.565 0.4
      vertex 2.665 17.315 2.2
      vertex 2.665 17.315 0.4
    endloop
  endfacet
  facet normal -1 -0 0
    outer loop
      vertex 2.665 17.315 2.2
      vertex 2.665 12.565 0.4
      vertex 2.665 12.565 2.2
    endloop
  endfacet
  facet normal -0.707107 0 0.707107
    outer loop
      vertex 2.7259 12.565 2.50615
      vertex 3.15885 17.315 2.9391
      vertex 2.7259 17.315 2.50615
    endloop
  endfacet
  facet normal -0.707107 0 0.707107
    outer loop
      vertex 3.15885 17.315 2.9391
      vertex 2.7259 12.565 2.50615
      vertex 3.15885 12.565 2.9391
    endloop
  endfacet
  facet normal -0.376381 0.908663 0.180745
    outer loop
      vertex 3.465 18.0541 2.50615
      vertex 2.89932 17.8807 2.2
      vertex 2.94238 17.8376 2.50615
    endloop
  endfacet
  facet normal -0.908663 0.376381 0.180745
    outer loop
      vertex 2.89932 17.8807 2.2
      vertex 2.7259 17.315 2.50615
      vertex 2.94238 17.8376 2.50615
    endloop
  endfacet
  facet normal -0.37638 -0.908664 0.180743
    outer loop
      vertex 3.465 11.8259 2.50615
      vertex 2.89932 11.9993 2.2
      vertex 3.465 11.765 2.2
    endloop
  endfacet
  facet normal 0 -0.707107 0.707107
    outer loop
      vertex 15.3041 11.8259 2.50615
      vertex 20.915 12.2589 2.9391
      vertex 14.8711 12.2589 2.9391
    endloop
  endfacet
  facet normal 0 -0.707107 0.707107
    outer loop
      vertex 20.915 12.2589 2.9391
      vertex 15.3041 11.8259 2.50615
      vertex 20.915 11.8259 2.50615
    endloop
  endfacet
  facet normal 0 -0.707107 0.707107
    outer loop
      vertex 9.0759 11.8259 2.50615
      vertex 3.465 12.2589 2.9391
      vertex 3.465 11.8259 2.50615
    endloop
  endfacet
  facet normal 0 -0.707107 0.707107
    outer loop
      vertex 3.465 12.2589 2.9391
      vertex 9.0759 11.8259 2.50615
      vertex 9.50885 12.2589 2.9391
    endloop
  endfacet
  facet normal -0.678598 -0.281085 0.678598
    outer loop
      vertex 3.15885 12.565 2.9391
      vertex 2.94238 12.0424 2.50615
      vertex 3.24852 12.3485 2.9391
    endloop
  endfacet
  facet normal -0.908663 -0.376381 0.180745
    outer loop
      vertex 2.94238 12.0424 2.50615
      vertex 2.7259 12.565 2.50615
      vertex 2.89932 11.9993 2.2
    endloop
  endfacet
  facet normal 0.908663 -0.376381 0.180745
    outer loop
      vertex 21.6541 12.565 2.50615
      vertex 21.4376 12.0424 2.50615
      vertex 21.4807 11.9993 2.2
    endloop
  endfacet
  facet normal 0.678598 -0.281085 0.678598
    outer loop
      vertex 21.2211 12.565 2.9391
      vertex 21.1315 12.3485 2.9391
      vertex 21.4376 12.0424 2.50615
    endloop
  endfacet
  facet normal 0 -1 0
    outer loop
      vertex 15.365 11.765 0.4
      vertex 20.915 11.765 2.2
      vertex 15.365 11.765 2.2
    endloop
  endfacet
  facet normal 0 -1 -0
    outer loop
      vertex 20.915 11.765 2.2
      vertex 15.365 11.765 0.4
      vertex 20.915 11.765 0.4
    endloop
  endfacet
  facet normal 0 -1 0
    outer loop
      vertex 3.465 11.765 0.4
      vertex 9.015 11.765 2.2
      vertex 3.465 11.765 2.2
    endloop
  endfacet
  facet normal 0 -1 -0
    outer loop
      vertex 9.015 11.765 2.2
      vertex 3.465 11.765 0.4
      vertex 9.015 11.765 0.4
    endloop
  endfacet
  facet normal 0.281085 -0.678598 0.678598
    outer loop
      vertex 21.1315 12.3485 2.9391
      vertex 20.915 12.2589 2.9391
      vertex 21.4376 12.0424 2.50615
    endloop
  endfacet
  facet normal 1 -0 0
    outer loop
      vertex 21.715 12.565 2.2
      vertex 21.715 17.315 0.4
      vertex 21.715 17.315 2.2
    endloop
  endfacet
  facet normal 1 0 0
    outer loop
      vertex 21.715 17.315 0.4
      vertex 21.715 12.565 2.2
      vertex 21.715 12.565 0.4
    endloop
  endfacet
  facet normal -0.281085 0.678598 0.678598
    outer loop
      vertex 3.465 17.6211 2.9391
      vertex 2.94238 17.8376 2.50615
      vertex 3.24852 17.5315 2.9391
    endloop
  endfacet
  facet normal -0.678598 0.281085 0.678598
    outer loop
      vertex 3.24852 17.5315 2.9391
      vertex 2.94238 17.8376 2.50615
      vertex 3.15885 17.315 2.9391
    endloop
  endfacet
  facet normal -0.376381 -0.908663 0.180745
    outer loop
      vertex 2.94238 12.0424 2.50615
      vertex 2.89932 11.9993 2.2
      vertex 3.465 11.8259 2.50615
    endloop
  endfacet
  facet normal -0.678598 -0.281085 0.678598
    outer loop
      vertex 3.15885 12.565 2.9391
      vertex 2.7259 12.565 2.50615
      vertex 2.94238 12.0424 2.50615
    endloop
  endfacet
  facet normal -0.908664 -0.37638 0.180743
    outer loop
      vertex 2.7259 12.565 2.50615
      vertex 2.665 12.565 2.2
      vertex 2.89932 11.9993 2.2
    endloop
  endfacet
  facet normal 0.92388 -0.382683 0
    outer loop
      vertex 21.4807 11.9993 2.2
      vertex 21.715 12.565 0.4
      vertex 21.715 12.565 2.2
    endloop
  endfacet
  facet normal 0.92388 -0.382683 0
    outer loop
      vertex 21.715 12.565 0.4
      vertex 21.4807 11.9993 2.2
      vertex 21.4807 11.9993 0.4
    endloop
  endfacet
  facet normal 0 -0.980786 0.195089
    outer loop
      vertex 9.015 11.765 2.2
      vertex 3.465 11.8259 2.50615
      vertex 3.465 11.765 2.2
    endloop
  endfacet
  facet normal 0 -0.980786 0.195089
    outer loop
      vertex 3.465 11.8259 2.50615
      vertex 9.015 11.765 2.2
      vertex 9.0759 11.8259 2.50615
    endloop
  endfacet
  facet normal 0 -0.980786 0.195089
    outer loop
      vertex 15.365 11.765 2.2
      vertex 20.915 11.8259 2.50615
      vertex 15.3041 11.8259 2.50615
    endloop
  endfacet
  facet normal 0 -0.980786 0.195089
    outer loop
      vertex 20.915 11.8259 2.50615
      vertex 15.365 11.765 2.2
      vertex 20.915 11.765 2.2
    endloop
  endfacet
  facet normal 0.281085 -0.678598 0.678598
    outer loop
      vertex 20.915 12.2589 2.9391
      vertex 20.915 11.8259 2.50615
      vertex 21.4376 12.0424 2.50615
    endloop
  endfacet
  facet normal 0.908664 -0.37638 0.180743
    outer loop
      vertex 21.6541 12.565 2.50615
      vertex 21.4807 11.9993 2.2
      vertex 21.715 12.565 2.2
    endloop
  endfacet
  facet normal 0.376381 -0.908663 0.180745
    outer loop
      vertex 21.4376 12.0424 2.50615
      vertex 20.915 11.8259 2.50615
      vertex 21.4807 11.9993 2.2
    endloop
  endfacet
  facet normal 0.37638 -0.908664 0.180743
    outer loop
      vertex 20.915 11.8259 2.50615
      vertex 20.915 11.765 2.2
      vertex 21.4807 11.9993 2.2
    endloop
  endfacet
  facet normal 0.923879 0.382685 0
    outer loop
      vertex 16.865 25.165 0.4
      vertex 16.6307 25.7307 0
      vertex 16.6307 25.7307 0.4
    endloop
  endfacet
  facet normal 0.923879 0.382685 0
    outer loop
      vertex 16.6307 25.7307 0
      vertex 16.865 25.165 0.4
      vertex 16.865 25.165 0
    endloop
  endfacet
  facet normal -0.92388 0.382683 0
    outer loop
      vertex 7.515 25.165 0
      vertex 7.74931 25.7307 0.4
      vertex 7.74931 25.7307 0
    endloop
  endfacet
  facet normal -0.92388 0.382683 0
    outer loop
      vertex 7.74931 25.7307 0.4
      vertex 7.515 25.165 0
      vertex 7.515 25.165 0.4
    endloop
  endfacet
  facet normal -1 0 0
    outer loop
      vertex 7.515 19.615 0
      vertex 7.515 25.165 0.4
      vertex 7.515 25.165 0
    endloop
  endfacet
  facet normal -1 -0 0
    outer loop
      vertex 7.515 25.165 0.4
      vertex 7.515 19.615 0
      vertex 7.515 19.615 0.4
    endloop
  endfacet
  facet normal -1 0 0
    outer loop
      vertex 7.515 4.715 0
      vertex 7.515 10.265 0.4
      vertex 7.515 10.265 0
    endloop
  endfacet
  facet normal -1 -0 0
    outer loop
      vertex 7.515 10.265 0.4
      vertex 7.515 4.715 0
      vertex 7.515 4.715 0.4
    endloop
  endfacet
  facet normal 0.923879 -0.382685 0
    outer loop
      vertex 16.6307 4.14931 0.4
      vertex 16.865 4.715 0
      vertex 16.865 4.715 0.4
    endloop
  endfacet
  facet normal 0.923879 -0.382685 0
    outer loop
      vertex 16.865 4.715 0
      vertex 16.6307 4.14931 0.4
      vertex 16.6307 4.14931 0
    endloop
  endfacet
  facet normal 0 1 -0
    outer loop
      vertex 16.065 25.965 0
      vertex 8.315 25.965 0.4
      vertex 16.065 25.965 0.4
    endloop
  endfacet
  facet normal 0 1 0
    outer loop
      vertex 8.315 25.965 0.4
      vertex 16.065 25.965 0
      vertex 8.315 25.965 0
    endloop
  endfacet
  facet normal 0.382683 0.92388 -0
    outer loop
      vertex 16.6307 25.7307 0
      vertex 16.065 25.965 0.4
      vertex 16.6307 25.7307 0.4
    endloop
  endfacet
  facet normal 0.382683 0.92388 0
    outer loop
      vertex 16.065 25.965 0.4
      vertex 16.6307 25.7307 0
      vertex 16.065 25.965 0
    endloop
  endfacet
  facet normal -0.382683 0.92388 0
    outer loop
      vertex 8.315 25.965 0
      vertex 7.74931 25.7307 0.4
      vertex 8.315 25.965 0.4
    endloop
  endfacet
  facet normal -0.382683 0.92388 0
    outer loop
      vertex 7.74931 25.7307 0.4
      vertex 8.315 25.965 0
      vertex 7.74931 25.7307 0
    endloop
  endfacet
  facet normal -0.92388 -0.382683 0
    outer loop
      vertex 7.74931 4.14931 0
      vertex 7.515 4.715 0.4
      vertex 7.515 4.715 0
    endloop
  endfacet
  facet normal -0.92388 -0.382683 0
    outer loop
      vertex 7.515 4.715 0.4
      vertex 7.74931 4.14931 0
      vertex 7.74931 4.14931 0.4
    endloop
  endfacet
  facet normal 1 -0 0
    outer loop
      vertex 16.865 19.615 0.4
      vertex 16.865 25.165 0
      vertex 16.865 25.165 0.4
    endloop
  endfacet
  facet normal 1 0 0
    outer loop
      vertex 16.865 25.165 0
      vertex 16.865 19.615 0.4
      vertex 16.865 19.615 0
    endloop
  endfacet
  facet normal 1 -0 0
    outer loop
      vertex 16.865 4.715 0.4
      vertex 16.865 10.265 0
      vertex 16.865 10.265 0.4
    endloop
  endfacet
  facet normal 1 0 0
    outer loop
      vertex 16.865 10.265 0
      vertex 16.865 4.715 0.4
      vertex 16.865 4.715 0
    endloop
  endfacet
  facet normal 0.382683 -0.92388 0
    outer loop
      vertex 16.065 3.915 0
      vertex 16.6307 4.14931 0.4
      vertex 16.065 3.915 0.4
    endloop
  endfacet
  facet normal 0.382683 -0.92388 0
    outer loop
      vertex 16.6307 4.14931 0.4
      vertex 16.065 3.915 0
      vertex 16.6307 4.14931 0
    endloop
  endfacet
  facet normal 0 -1 0
    outer loop
      vertex 8.315 3.915 0
      vertex 16.065 3.915 0.4
      vertex 8.315 3.915 0.4
    endloop
  endfacet
  facet normal 0 -1 -0
    outer loop
      vertex 16.065 3.915 0.4
      vertex 8.315 3.915 0
      vertex 16.065 3.915 0
    endloop
  endfacet
  facet normal -0.382683 -0.92388 0
    outer loop
      vertex 7.74931 4.14931 0
      vertex 8.315 3.915 0.4
      vertex 7.74931 4.14931 0.4
    endloop
  endfacet
  facet normal -0.382683 -0.92388 -0
    outer loop
      vertex 8.315 3.915 0.4
      vertex 7.74931 4.14931 0
      vertex 8.315 3.915 0
    endloop
  endfacet
  facet normal 0.281085 0.678598 0.678598
    outer loop
      vertex 14.565 24.4041 2.50615
      vertex 14.565 23.9711 2.9391
      vertex 15.0876 24.1876 2.50615
    endloop
  endfacet
  facet normal 1 -0 0
    outer loop
      vertex 15.365 18.115 2.2
      vertex 15.365 23.665 0.4
      vertex 15.365 23.665 2.2
    endloop
  endfacet
  facet normal 1 0 0
    outer loop
      vertex 15.365 23.665 0.4
      vertex 15.365 18.115 2.2
      vertex 15.365 18.115 0.4
    endloop
  endfacet
  facet normal 1 -0 0
    outer loop
      vertex 15.365 6.215 2.2
      vertex 15.365 11.765 0.4
      vertex 15.365 11.765 2.2
    endloop
  endfacet
  facet normal 1 0 0
    outer loop
      vertex 15.365 11.765 0.4
      vertex 15.365 6.215 2.2
      vertex 15.365 6.215 0.4
    endloop
  endfacet
  facet normal 0.376381 0.908663 0.180745
    outer loop
      vertex 15.1307 24.2307 2.2
      vertex 14.565 24.4041 2.50615
      vertex 15.0876 24.1876 2.50615
    endloop
  endfacet
  facet normal 0.37638 0.908664 0.180743
    outer loop
      vertex 14.565 24.465 2.2
      vertex 14.565 24.4041 2.50615
      vertex 15.1307 24.2307 2.2
    endloop
  endfacet
  facet normal 0.281085 0.678598 0.678598
    outer loop
      vertex 15.0876 24.1876 2.50615
      vertex 14.565 23.9711 2.9391
      vertex 14.7815 23.8815 2.9391
    endloop
  endfacet
  facet normal 0.678598 0.281085 0.678598
    outer loop
      vertex 15.0876 24.1876 2.50615
      vertex 14.7815 23.8815 2.9391
      vertex 14.8711 23.665 2.9391
    endloop
  endfacet
  facet normal 0.92388 0.382683 0
    outer loop
      vertex 15.365 23.665 2.2
      vertex 15.1307 24.2307 0.4
      vertex 15.1307 24.2307 2.2
    endloop
  endfacet
  facet normal 0.92388 0.382683 0
    outer loop
      vertex 15.1307 24.2307 0.4
      vertex 15.365 23.665 2.2
      vertex 15.365 23.665 0.4
    endloop
  endfacet
  facet normal 0.678598 -0.281085 0.678598
    outer loop
      vertex 14.8711 6.215 2.9391
      vertex 14.7815 5.99852 2.9391
      vertex 15.0876 5.69238 2.50615
    endloop
  endfacet
  facet normal -0.678598 -0.281085 0.678598
    outer loop
      vertex 9.50885 6.215 2.9391
      vertex 9.29237 5.69238 2.50615
      vertex 9.59852 5.99852 2.9391
    endloop
  endfacet
  facet normal 0.382683 0.92388 -0
    outer loop
      vertex 15.1307 24.2307 0.4
      vertex 14.565 24.465 2.2
      vertex 15.1307 24.2307 2.2
    endloop
  endfacet
  facet normal 0.382683 0.92388 0
    outer loop
      vertex 14.565 24.465 2.2
      vertex 15.1307 24.2307 0.4
      vertex 14.565 24.465 0.4
    endloop
  endfacet
  facet normal -0.92388 -0.382683 0
    outer loop
      vertex 9.24931 5.64932 0.4
      vertex 9.015 6.215 2.2
      vertex 9.015 6.215 0.4
    endloop
  endfacet
  facet normal -0.92388 -0.382683 0
    outer loop
      vertex 9.015 6.215 2.2
      vertex 9.24931 5.64932 0.4
      vertex 9.24931 5.64932 2.2
    endloop
  endfacet
  facet normal -0.707107 0 0.707107
    outer loop
      vertex 9.50885 6.215 2.9391
      vertex 9.0759 11.8259 2.50615
      vertex 9.0759 6.215 2.50615
    endloop
  endfacet
  facet normal -0.707107 0 0.707107
    outer loop
      vertex 9.0759 11.8259 2.50615
      vertex 9.50885 6.215 2.9391
      vertex 9.50885 12.2589 2.9391
    endloop
  endfacet
  facet normal -0.707107 0 0.707107
    outer loop
      vertex 9.0759 18.0541 2.50615
      vertex 9.50885 23.665 2.9391
      vertex 9.0759 23.665 2.50615
    endloop
  endfacet
  facet normal -0.707107 0 0.707107
    outer loop
      vertex 9.50885 23.665 2.9391
      vertex 9.0759 18.0541 2.50615
      vertex 9.50885 17.6211 2.9391
    endloop
  endfacet
  facet normal 0 0.707107 0.707107
    outer loop
      vertex 14.565 24.4041 2.50615
      vertex 9.815 23.9711 2.9391
      vertex 14.565 23.9711 2.9391
    endloop
  endfacet
  facet normal 0 0.707107 0.707107
    outer loop
      vertex 9.815 23.9711 2.9391
      vertex 14.565 24.4041 2.50615
      vertex 9.815 24.4041 2.50615
    endloop
  endfacet
  facet normal 0.707107 0 0.707107
    outer loop
      vertex 14.8711 23.665 2.9391
      vertex 15.3041 18.0541 2.50615
      vertex 15.3041 23.665 2.50615
    endloop
  endfacet
  facet normal 0.707107 0 0.707107
    outer loop
      vertex 15.3041 18.0541 2.50615
      vertex 14.8711 23.665 2.9391
      vertex 14.8711 17.6211 2.9391
    endloop
  endfacet
  facet normal 0.707107 -0 0.707107
    outer loop
      vertex 14.8711 6.215 2.9391
      vertex 15.3041 11.8259 2.50615
      vertex 14.8711 12.2589 2.9391
    endloop
  endfacet
  facet normal 0.707107 0 0.707107
    outer loop
      vertex 15.3041 11.8259 2.50615
      vertex 14.8711 6.215 2.9391
      vertex 15.3041 6.215 2.50615
    endloop
  endfacet
  facet normal -1 0 0
    outer loop
      vertex 9.015 6.215 0.4
      vertex 9.015 11.765 2.2
      vertex 9.015 11.765 0.4
    endloop
  endfacet
  facet normal -1 -0 0
    outer loop
      vertex 9.015 11.765 2.2
      vertex 9.015 6.215 0.4
      vertex 9.015 6.215 2.2
    endloop
  endfacet
  facet normal -1 0 0
    outer loop
      vertex 9.015 18.115 0.4
      vertex 9.015 23.665 2.2
      vertex 9.015 23.665 0.4
    endloop
  endfacet
  facet normal -1 -0 0
    outer loop
      vertex 9.015 23.665 2.2
      vertex 9.015 18.115 0.4
      vertex 9.015 18.115 2.2
    endloop
  endfacet
  facet normal 0 1 -0
    outer loop
      vertex 14.565 24.465 0.4
      vertex 9.815 24.465 2.2
      vertex 14.565 24.465 2.2
    endloop
  endfacet
  facet normal 0 1 0
    outer loop
      vertex 9.815 24.465 2.2
      vertex 14.565 24.465 0.4
      vertex 9.815 24.465 0.4
    endloop
  endfacet
  facet normal 0.908664 0.37638 0.180743
    outer loop
      vertex 15.365 23.665 2.2
      vertex 15.1307 24.2307 2.2
      vertex 15.3041 23.665 2.50615
    endloop
  endfacet
  facet normal 0.281085 -0.678598 0.678598
    outer loop
      vertex 14.565 5.90885 2.9391
      vertex 14.565 5.4759 2.50615
      vertex 15.0876 5.69238 2.50615
    endloop
  endfacet
  facet normal -0.908664 -0.37638 0.180743
    outer loop
      vertex 9.0759 6.215 2.50615
      vertex 9.015 6.215 2.2
      vertex 9.24931 5.64932 2.2
    endloop
  endfacet
  facet normal -0.678598 -0.281085 0.678598
    outer loop
      vertex 9.50885 6.215 2.9391
      vertex 9.0759 6.215 2.50615
      vertex 9.29237 5.69238 2.50615
    endloop
  endfacet
  facet normal 0 0.980786 0.195089
    outer loop
      vertex 14.565 24.465 2.2
      vertex 9.815 24.4041 2.50615
      vertex 14.565 24.4041 2.50615
    endloop
  endfacet
  facet normal 0 0.980786 0.195089
    outer loop
      vertex 9.815 24.4041 2.50615
      vertex 14.565 24.465 2.2
      vertex 9.815 24.465 2.2
    endloop
  endfacet
  facet normal -0.908663 0.376381 0.180745
    outer loop
      vertex 9.24931 24.2307 2.2
      vertex 9.0759 23.665 2.50615
      vertex 9.29237 24.1876 2.50615
    endloop
  endfacet
  facet normal -0.382683 0.92388 0
    outer loop
      vertex 9.815 24.465 0.4
      vertex 9.24931 24.2307 2.2
      vertex 9.815 24.465 2.2
    endloop
  endfacet
  facet normal -0.382683 0.92388 0
    outer loop
      vertex 9.24931 24.2307 2.2
      vertex 9.815 24.465 0.4
      vertex 9.24931 24.2307 0.4
    endloop
  endfacet
  facet normal 0.908663 0.376381 0.180745
    outer loop
      vertex 15.1307 24.2307 2.2
      vertex 15.0876 24.1876 2.50615
      vertex 15.3041 23.665 2.50615
    endloop
  endfacet
  facet normal 0.678598 0.281085 0.678598
    outer loop
      vertex 15.0876 24.1876 2.50615
      vertex 14.8711 23.665 2.9391
      vertex 15.3041 23.665 2.50615
    endloop
  endfacet
  facet normal -0.37638 -0.908664 0.180743
    outer loop
      vertex 9.815 5.4759 2.50615
      vertex 9.24931 5.64932 2.2
      vertex 9.815 5.415 2.2
    endloop
  endfacet
  facet normal 0.382683 -0.92388 0
    outer loop
      vertex 14.565 5.415 0.4
      vertex 15.1307 5.64932 2.2
      vertex 14.565 5.415 2.2
    endloop
  endfacet
  facet normal 0.382683 -0.92388 0
    outer loop
      vertex 15.1307 5.64932 2.2
      vertex 14.565 5.415 0.4
      vertex 15.1307 5.64932 0.4
    endloop
  endfacet
  facet normal 0.92388 -0.382683 0
    outer loop
      vertex 15.1307 5.64932 2.2
      vertex 15.365 6.215 0.4
      vertex 15.365 6.215 2.2
    endloop
  endfacet
  facet normal 0.92388 -0.382683 0
    outer loop
      vertex 15.365 6.215 0.4
      vertex 15.1307 5.64932 2.2
      vertex 15.1307 5.64932 0.4
    endloop
  endfacet
  facet normal 0 -0.980786 0.195089
    outer loop
      vertex 9.815 5.415 2.2
      vertex 14.565 5.4759 2.50615
      vertex 9.815 5.4759 2.50615
    endloop
  endfacet
  facet normal 0 -0.980786 0.195089
    outer loop
      vertex 14.565 5.4759 2.50615
      vertex 9.815 5.415 2.2
      vertex 14.565 5.415 2.2
    endloop
  endfacet
  facet normal -0.908663 -0.376381 0.180745
    outer loop
      vertex 9.29237 5.69238 2.50615
      vertex 9.0759 6.215 2.50615
      vertex 9.24931 5.64932 2.2
    endloop
  endfacet
  facet normal -0.678598 0.281085 0.678598
    outer loop
      vertex 9.29237 24.1876 2.50615
      vertex 9.0759 23.665 2.50615
      vertex 9.50885 23.665 2.9391
    endloop
  endfacet
  facet normal -0.980786 0 0.195089
    outer loop
      vertex 9.0759 6.215 2.50615
      vertex 9.015 11.765 2.2
      vertex 9.015 6.215 2.2
    endloop
  endfacet
  facet normal -0.980786 0 0.195089
    outer loop
      vertex 9.015 11.765 2.2
      vertex 9.0759 6.215 2.50615
      vertex 9.0759 11.8259 2.50615
    endloop
  endfacet
  facet normal -0.980786 0 0.195089
    outer loop
      vertex 9.015 18.115 2.2
      vertex 9.0759 23.665 2.50615
      vertex 9.015 23.665 2.2
    endloop
  endfacet
  facet normal -0.980786 0 0.195089
    outer loop
      vertex 9.0759 23.665 2.50615
      vertex 9.015 18.115 2.2
      vertex 9.0759 18.0541 2.50615
    endloop
  endfacet
  facet normal 0.281085 -0.678598 0.678598
    outer loop
      vertex 14.7815 5.99852 2.9391
      vertex 14.565 5.90885 2.9391
      vertex 15.0876 5.69238 2.50615
    endloop
  endfacet
  facet normal 0.376381 -0.908663 0.180745
    outer loop
      vertex 15.0876 5.69238 2.50615
      vertex 14.565 5.4759 2.50615
      vertex 15.1307 5.64932 2.2
    endloop
  endfacet
  facet normal 0.908664 -0.37638 0.180743
    outer loop
      vertex 15.3041 6.215 2.50615
      vertex 15.1307 5.64932 2.2
      vertex 15.365 6.215 2.2
    endloop
  endfacet
  facet normal 0 -1 0
    outer loop
      vertex 9.815 5.415 0.4
      vertex 14.565 5.415 2.2
      vertex 9.815 5.415 2.2
    endloop
  endfacet
  facet normal 0 -1 -0
    outer loop
      vertex 14.565 5.415 2.2
      vertex 9.815 5.415 0.4
      vertex 14.565 5.415 0.4
    endloop
  endfacet
  facet normal -0.382683 -0.92388 0
    outer loop
      vertex 9.24931 5.64932 0.4
      vertex 9.815 5.415 2.2
      vertex 9.24931 5.64932 2.2
    endloop
  endfacet
  facet normal -0.382683 -0.92388 -0
    outer loop
      vertex 9.815 5.415 2.2
      vertex 9.24931 5.64932 0.4
      vertex 9.815 5.415 0.4
    endloop
  endfacet
  facet normal 0.37638 -0.908664 0.180743
    outer loop
      vertex 14.565 5.4759 2.50615
      vertex 14.565 5.415 2.2
      vertex 15.1307 5.64932 2.2
    endloop
  endfacet
  facet normal -0.281085 -0.678598 0.678598
    outer loop
      vertex 9.59852 5.99852 2.9391
      vertex 9.29237 5.69238 2.50615
      vertex 9.815 5.90885 2.9391
    endloop
  endfacet
  facet normal -0.281085 0.678598 0.678598
    outer loop
      vertex 9.815 23.9711 2.9391
      vertex 9.29237 24.1876 2.50615
      vertex 9.59852 23.8815 2.9391
    endloop
  endfacet
  facet normal -0.92388 0.382683 0
    outer loop
      vertex 9.015 23.665 0.4
      vertex 9.24931 24.2307 2.2
      vertex 9.24931 24.2307 0.4
    endloop
  endfacet
  facet normal -0.92388 0.382683 0
    outer loop
      vertex 9.24931 24.2307 2.2
      vertex 9.015 23.665 0.4
      vertex 9.015 23.665 2.2
    endloop
  endfacet
  facet normal -0.281085 0.678598 0.678598
    outer loop
      vertex 9.815 24.4041 2.50615
      vertex 9.29237 24.1876 2.50615
      vertex 9.815 23.9711 2.9391
    endloop
  endfacet
  facet normal -0.908664 0.37638 0.180743
    outer loop
      vertex 9.24931 24.2307 2.2
      vertex 9.015 23.665 2.2
      vertex 9.0759 23.665 2.50615
    endloop
  endfacet
  facet normal 0.980786 0 0.195089
    outer loop
      vertex 15.3041 23.665 2.50615
      vertex 15.365 18.115 2.2
      vertex 15.365 23.665 2.2
    endloop
  endfacet
  facet normal 0.980786 0 0.195089
    outer loop
      vertex 15.365 18.115 2.2
      vertex 15.3041 23.665 2.50615
      vertex 15.3041 18.0541 2.50615
    endloop
  endfacet
  facet normal 0.980786 -0 0.195089
    outer loop
      vertex 15.3041 6.215 2.50615
      vertex 15.365 11.765 2.2
      vertex 15.3041 11.8259 2.50615
    endloop
  endfacet
  facet normal 0.980786 0 0.195089
    outer loop
      vertex 15.365 11.765 2.2
      vertex 15.3041 6.215 2.50615
      vertex 15.365 6.215 2.2
    endloop
  endfacet
  facet normal -0.376381 -0.908663 0.180745
    outer loop
      vertex 9.29237 5.69238 2.50615
      vertex 9.24931 5.64932 2.2
      vertex 9.815 5.4759 2.50615
    endloop
  endfacet
  facet normal -0.281085 -0.678598 0.678598
    outer loop
      vertex 9.815 5.90885 2.9391
      vertex 9.29237 5.69238 2.50615
      vertex 9.815 5.4759 2.50615
    endloop
  endfacet
  facet normal 0 -0.707107 0.707107
    outer loop
      vertex 9.815 5.4759 2.50615
      vertex 14.565 5.90885 2.9391
      vertex 9.815 5.90885 2.9391
    endloop
  endfacet
  facet normal 0 -0.707107 0.707107
    outer loop
      vertex 14.565 5.90885 2.9391
      vertex 9.815 5.4759 2.50615
      vertex 14.565 5.4759 2.50615
    endloop
  endfacet
  facet normal -0.376381 0.908663 0.180745
    outer loop
      vertex 9.815 24.4041 2.50615
      vertex 9.24931 24.2307 2.2
      vertex 9.29237 24.1876 2.50615
    endloop
  endfacet
  facet normal -0.37638 0.908664 0.180743
    outer loop
      vertex 9.815 24.465 2.2
      vertex 9.24931 24.2307 2.2
      vertex 9.815 24.4041 2.50615
    endloop
  endfacet
  facet normal -0.678598 0.281085 0.678598
    outer loop
      vertex 9.59852 23.8815 2.9391
      vertex 9.29237 24.1876 2.50615
      vertex 9.50885 23.665 2.9391
    endloop
  endfacet
  facet normal 0.908663 -0.376381 0.180745
    outer loop
      vertex 15.3041 6.215 2.50615
      vertex 15.0876 5.69238 2.50615
      vertex 15.1307 5.64932 2.2
    endloop
  endfacet
  facet normal 0.678598 -0.281085 0.678598
    outer loop
      vertex 15.3041 6.215 2.50615
      vertex 14.8711 6.215 2.9391
      vertex 15.0876 5.69238 2.50615
    endloop
  endfacet
  facet normal -0.216148 0.323487 0.921214
    outer loop
      vertex 13.066 14.064 2.48701
      vertex 13.6275 13.1518 2.9391
      vertex 13.8377 13.2923 2.9391
    endloop
  endfacet
  facet normal -0.216147 0.323487 0.921214
    outer loop
      vertex 13.6275 13.1518 2.9391
      vertex 13.066 14.064 2.48701
      vertex 12.6641 13.7955 2.48701
    endloop
  endfacet
  facet normal -0.381579 -0.0759004 0.921215
    outer loop
      vertex 14.4709 15.188 2.9391
      vertex 13.4288 14.94 2.48701
      vertex 14.5203 14.94 2.9391
    endloop
  endfacet
  facet normal -0.381579 -0.0759004 0.921215
    outer loop
      vertex 13.4288 14.94 2.48701
      vertex 14.4709 15.188 2.9391
      vertex 13.3345 15.4141 2.48701
    endloop
  endfacet
  facet normal -0.323487 0.216147 0.921215
    outer loop
      vertex 13.9782 13.5025 2.9391
      vertex 14.3429 14.0482 2.9391
      vertex 13.3345 14.4659 2.48701
    endloop
  endfacet
  facet normal -0.0759009 -0.38158 0.921214
    outer loop
      vertex 12.6641 16.0845 2.48701
      vertex 13.0818 17.0929 2.9391
      vertex 12.438 17.2209 2.9391
    endloop
  endfacet
  facet normal 0.323488 0.216148 0.921214
    outer loop
      vertex 10.4018 13.5025 2.9391
      vertex 11.0455 14.4659 2.48701
      vertex 10.0371 14.0482 2.9391
    endloop
  endfacet
  facet normal -0.381579 0.0759007 0.921215
    outer loop
      vertex 13.4288 14.94 2.48701
      vertex 14.4709 14.692 2.9391
      vertex 14.5203 14.94 2.9391
    endloop
  endfacet
  facet normal -0.381579 0.0759005 0.921215
    outer loop
      vertex 14.4709 14.692 2.9391
      vertex 13.4288 14.94 2.48701
      vertex 13.3345 14.4659 2.48701
    endloop
  endfacet
  facet normal 0.0759022 -0.38158 0.921214
    outer loop
      vertex 11.942 17.2209 2.9391
      vertex 12.19 16.1788 2.48701
      vertex 12.19 17.2703 2.9391
    endloop
  endfacet
  facet normal 0.0759006 -0.38158 0.921214
    outer loop
      vertex 12.19 16.1788 2.48701
      vertex 11.942 17.2209 2.9391
      vertex 11.7159 16.0845 2.48701
    endloop
  endfacet
  facet normal 0.216148 0.323488 0.921214
    outer loop
      vertex 11.2982 12.7871 2.9391
      vertex 11.7159 13.7955 2.48701
      vertex 10.7525 13.1518 2.9391
    endloop
  endfacet
  facet normal 0.38158 -0.0759009 0.921214
    outer loop
      vertex 11.0455 15.4141 2.48701
      vertex 10.0371 15.8318 2.9391
      vertex 9.90907 15.188 2.9391
    endloop
  endfacet
  facet normal -0.216147 0.323488 0.921214
    outer loop
      vertex 13.0818 12.7871 2.9391
      vertex 13.6275 13.1518 2.9391
      vertex 12.6641 13.7955 2.48701
    endloop
  endfacet
  facet normal -0.0759009 0.38158 0.921214
    outer loop
      vertex 13.0818 12.7871 2.9391
      vertex 12.6641 13.7955 2.48701
      vertex 12.438 12.6591 2.9391
    endloop
  endfacet
  facet normal -0.216147 -0.323488 0.921214
    outer loop
      vertex 13.6275 16.7282 2.9391
      vertex 13.0818 17.0929 2.9391
      vertex 12.6641 16.0845 2.48701
    endloop
  endfacet
  facet normal 0.38158 0.0759008 0.921214
    outer loop
      vertex 10.0371 14.0482 2.9391
      vertex 11.0455 14.4659 2.48701
      vertex 9.90907 14.692 2.9391
    endloop
  endfacet
  facet normal 0.216148 -0.323488 0.921214
    outer loop
      vertex 11.7159 16.0845 2.48701
      vertex 11.2982 17.0929 2.9391
      vertex 10.7525 16.7282 2.9391
    endloop
  endfacet
  facet normal 0.38158 -0.0759005 0.921214
    outer loop
      vertex 9.90907 15.188 2.9391
      vertex 10.9512 14.94 2.48701
      vertex 11.0455 15.4141 2.48701
    endloop
  endfacet
  facet normal 0.38158 -0.0759004 0.921214
    outer loop
      vertex 10.9512 14.94 2.48701
      vertex 9.90907 15.188 2.9391
      vertex 9.85973 14.94 2.9391
    endloop
  endfacet
  facet normal -0.381579 0.0759007 0.921215
    outer loop
      vertex 14.3429 14.0482 2.9391
      vertex 14.4709 14.692 2.9391
      vertex 13.3345 14.4659 2.48701
    endloop
  endfacet
  facet normal -0.323487 0.216147 0.921215
    outer loop
      vertex 13.066 14.064 2.48701
      vertex 13.9782 13.5025 2.9391
      vertex 13.3345 14.4659 2.48701
    endloop
  endfacet
  facet normal -0.323487 0.216148 0.921215
    outer loop
      vertex 13.9782 13.5025 2.9391
      vertex 13.066 14.064 2.48701
      vertex 13.8377 13.2923 2.9391
    endloop
  endfacet
  facet normal 0.0759008 0.38158 0.921214
    outer loop
      vertex 11.942 12.6591 2.9391
      vertex 11.7159 13.7955 2.48701
      vertex 11.2982 12.7871 2.9391
    endloop
  endfacet
  facet normal -0.381579 -0.0759008 0.921215
    outer loop
      vertex 14.4709 15.188 2.9391
      vertex 14.3429 15.8318 2.9391
      vertex 13.3345 15.4141 2.48701
    endloop
  endfacet
  facet normal 0.0759008 -0.38158 0.921214
    outer loop
      vertex 11.7159 16.0845 2.48701
      vertex 11.942 17.2209 2.9391
      vertex 11.2982 17.0929 2.9391
    endloop
  endfacet
  facet normal 0.323488 -0.216147 0.921214
    outer loop
      vertex 11.0455 15.4141 2.48701
      vertex 10.4018 16.3775 2.9391
      vertex 10.0371 15.8318 2.9391
    endloop
  endfacet
  facet normal -0.0759019 -0.38158 0.921214
    outer loop
      vertex 12.19 16.1788 2.48701
      vertex 12.438 17.2209 2.9391
      vertex 12.19 17.2703 2.9391
    endloop
  endfacet
  facet normal -0.0759006 -0.38158 0.921214
    outer loop
      vertex 12.438 17.2209 2.9391
      vertex 12.19 16.1788 2.48701
      vertex 12.6641 16.0845 2.48701
    endloop
  endfacet
  facet normal -0.216146 -0.323488 0.921215
    outer loop
      vertex 13.6275 16.7282 2.9391
      vertex 13.066 15.816 2.48701
      vertex 13.8377 16.5877 2.9391
    endloop
  endfacet
  facet normal -0.216148 -0.323487 0.921214
    outer loop
      vertex 13.066 15.816 2.48701
      vertex 13.6275 16.7282 2.9391
      vertex 12.6641 16.0845 2.48701
    endloop
  endfacet
  facet normal -0.323487 -0.216147 0.921215
    outer loop
      vertex 13.066 15.816 2.48701
      vertex 13.9782 16.3775 2.9391
      vertex 13.8377 16.5877 2.9391
    endloop
  endfacet
  facet normal -0.323487 -0.216147 0.921215
    outer loop
      vertex 13.9782 16.3775 2.9391
      vertex 13.066 15.816 2.48701
      vertex 13.3345 15.4141 2.48701
    endloop
  endfacet
  facet normal -0.323488 -0.216147 0.921215
    outer loop
      vertex 14.3429 15.8318 2.9391
      vertex 13.9782 16.3775 2.9391
      vertex 13.3345 15.4141 2.48701
    endloop
  endfacet
  facet normal 0.0759007 0.38158 0.921214
    outer loop
      vertex 12.19 13.7012 2.48701
      vertex 11.942 12.6591 2.9391
      vertex 12.19 12.6097 2.9391
    endloop
  endfacet
  facet normal 0.0759005 0.38158 0.921214
    outer loop
      vertex 11.942 12.6591 2.9391
      vertex 12.19 13.7012 2.48701
      vertex 11.7159 13.7955 2.48701
    endloop
  endfacet
  facet normal 0.216148 0.323488 0.921214
    outer loop
      vertex 11.314 14.064 2.48701
      vertex 10.7525 13.1518 2.9391
      vertex 11.7159 13.7955 2.48701
    endloop
  endfacet
  facet normal 0.216148 0.323487 0.921214
    outer loop
      vertex 10.7525 13.1518 2.9391
      vertex 11.314 14.064 2.48701
      vertex 10.5423 13.2923 2.9391
    endloop
  endfacet
  facet normal 0.323488 0.216148 0.921214
    outer loop
      vertex 10.4018 13.5025 2.9391
      vertex 11.314 14.064 2.48701
      vertex 11.0455 14.4659 2.48701
    endloop
  endfacet
  facet normal 0.323487 0.216148 0.921214
    outer loop
      vertex 11.314 14.064 2.48701
      vertex 10.4018 13.5025 2.9391
      vertex 10.5423 13.2923 2.9391
    endloop
  endfacet
  facet normal 0 0 1
    outer loop
      vertex 13.3345 15.4141 2.48701
      vertex 13.3345 14.4659 2.48701
      vertex 13.4288 14.94 2.48701
    endloop
  endfacet
  facet normal 0 0 1
    outer loop
      vertex 13.066 15.816 2.48701
      vertex 13.3345 14.4659 2.48701
      vertex 13.3345 15.4141 2.48701
    endloop
  endfacet
  facet normal 0 0 1
    outer loop
      vertex 13.066 15.816 2.48701
      vertex 13.066 14.064 2.48701
      vertex 13.3345 14.4659 2.48701
    endloop
  endfacet
  facet normal 0 0 1
    outer loop
      vertex 12.6641 16.0845 2.48701
      vertex 13.066 14.064 2.48701
      vertex 13.066 15.816 2.48701
    endloop
  endfacet
  facet normal 0 0 1
    outer loop
      vertex 12.6641 16.0845 2.48701
      vertex 12.6641 13.7955 2.48701
      vertex 13.066 14.064 2.48701
    endloop
  endfacet
  facet normal 0 0 1
    outer loop
      vertex 12.19 16.1788 2.48701
      vertex 12.6641 13.7955 2.48701
      vertex 12.6641 16.0845 2.48701
    endloop
  endfacet
  facet normal 0 0 1
    outer loop
      vertex 12.19 16.1788 2.48701
      vertex 12.19 13.7012 2.48701
      vertex 12.6641 13.7955 2.48701
    endloop
  endfacet
  facet normal -0 0 1
    outer loop
      vertex 11.7159 16.0845 2.48701
      vertex 12.19 13.7012 2.48701
      vertex 12.19 16.1788 2.48701
    endloop
  endfacet
  facet normal 0 0 1
    outer loop
      vertex 11.7159 16.0845 2.48701
      vertex 11.7159 13.7955 2.48701
      vertex 12.19 13.7012 2.48701
    endloop
  endfacet
  facet normal -0 0 1
    outer loop
      vertex 11.314 15.816 2.48701
      vertex 11.7159 13.7955 2.48701
      vertex 11.7159 16.0845 2.48701
    endloop
  endfacet
  facet normal 0 0 1
    outer loop
      vertex 11.314 15.816 2.48701
      vertex 11.314 14.064 2.48701
      vertex 11.7159 13.7955 2.48701
    endloop
  endfacet
  facet normal -0 0 1
    outer loop
      vertex 11.0455 15.4141 2.48701
      vertex 11.314 14.064 2.48701
      vertex 11.314 15.816 2.48701
    endloop
  endfacet
  facet normal 0 0 1
    outer loop
      vertex 11.0455 15.4141 2.48701
      vertex 11.0455 14.4659 2.48701
      vertex 11.314 14.064 2.48701
    endloop
  endfacet
  facet normal 0 -0 1
    outer loop
      vertex 11.0455 14.4659 2.48701
      vertex 11.0455 15.4141 2.48701
      vertex 10.9512 14.94 2.48701
    endloop
  endfacet
  facet normal 0.38158 0.0759005 0.921214
    outer loop
      vertex 10.9512 14.94 2.48701
      vertex 9.90907 14.692 2.9391
      vertex 11.0455 14.4659 2.48701
    endloop
  endfacet
  facet normal 0.38158 0.0759007 0.921214
    outer loop
      vertex 9.90907 14.692 2.9391
      vertex 10.9512 14.94 2.48701
      vertex 9.85973 14.94 2.9391
    endloop
  endfacet
  facet normal 0.323487 -0.216147 0.921214
    outer loop
      vertex 10.4018 16.3775 2.9391
      vertex 11.314 15.816 2.48701
      vertex 10.5423 16.5877 2.9391
    endloop
  endfacet
  facet normal 0.323487 -0.216147 0.921214
    outer loop
      vertex 11.314 15.816 2.48701
      vertex 10.4018 16.3775 2.9391
      vertex 11.0455 15.4141 2.48701
    endloop
  endfacet
  facet normal 0.216148 -0.323487 0.921214
    outer loop
      vertex 10.7525 16.7282 2.9391
      vertex 11.314 15.816 2.48701
      vertex 11.7159 16.0845 2.48701
    endloop
  endfacet
  facet normal 0.216146 -0.323488 0.921214
    outer loop
      vertex 11.314 15.816 2.48701
      vertex 10.7525 16.7282 2.9391
      vertex 10.5423 16.5877 2.9391
    endloop
  endfacet
  facet normal -0.0759005 0.38158 0.921214
    outer loop
      vertex 12.19 13.7012 2.48701
      vertex 12.438 12.6591 2.9391
      vertex 12.6641 13.7955 2.48701
    endloop
  endfacet
  facet normal -0.0759004 0.38158 0.921214
    outer loop
      vertex 12.438 12.6591 2.9391
      vertex 12.19 13.7012 2.48701
      vertex 12.19 12.6097 2.9391
    endloop
  endfacet
endsolid OpenSCAD_Model
